<svg xmlns="http://www.w3.org/2000/svg" width="1600" height="1000" viewBox="0 0 1600 1000" fill="none">
  <defs>
    <!-- Warps straight geometry into organic, brush-like edges -->
    <filter id="warp" x="-20%" y="-20%" width="140%" height="140%" color-interpolation-filters="sRGB">
      <feTurbulence type="fractalNoise" baseFrequency="0.0055 0.017" numOctaves="4" seed="17" result="noise"/>
      <feDisplacementMap in="SourceGraphic" in2="noise" scale="78" xChannelSelector="R" yChannelSelector="G"/>
    </filter>

    <!-- Second pass: coarse warp for the wide base strokes -->
    <filter id="warp2" x="-25%" y="-25%" width="150%" height="150%" color-interpolation-filters="sRGB">
      <feTurbulence type="fractalNoise" baseFrequency="0.0035 0.011" numOctaves="5" seed="41" result="noise"/>
      <feDisplacementMap in="SourceGraphic" in2="noise" scale="120" xChannelSelector="R" yChannelSelector="G"/>
    </filter>

    <!-- Dry-brush: punches speckled holes so the stroke looks like bristle drag -->
    <filter id="dry" x="-15%" y="-15%" width="130%" height="130%" color-interpolation-filters="sRGB">
      <feTurbulence type="fractalNoise" baseFrequency="0.016 0.07" numOctaves="5" seed="23" result="warpNoise"/>
      <feDisplacementMap in="SourceGraphic" in2="warpNoise" scale="34" result="rough"/>
      <feTurbulence type="fractalNoise" baseFrequency="0.55" numOctaves="3" seed="7" result="grain"/>
      <feColorMatrix in="grain" type="matrix"
        values="0 0 0 0 0
                0 0 0 0 0
                0 0 0 0 0
                0 0 0 -1.5 0.72" result="holes"/>
      <feComposite in="rough" in2="holes" operator="out"/>
    </filter>

    <!-- Finer dry-brush for thin streak details -->
    <filter id="dry-fine" x="-20%" y="-20%" width="140%" height="140%" color-interpolation-filters="sRGB">
      <feTurbulence type="fractalNoise" baseFrequency="0.03 0.12" numOctaves="4" seed="61" result="warpNoise"/>
      <feDisplacementMap in="SourceGraphic" in2="warpNoise" scale="16" result="rough"/>
      <feTurbulence type="fractalNoise" baseFrequency="0.9" numOctaves="2" seed="3" result="grain"/>
      <feColorMatrix in="grain" type="matrix"
        values="0 0 0 0 0
                0 0 0 0 0
                0 0 0 0 0
                0 0 0 -1.9 0.9" result="holes"/>
      <feComposite in="rough" in2="holes" operator="out"/>
    </filter>
  </defs>

  <g filter="url(#dry)">
    <!-- Wide foundational sweeps -->
    <g filter="url(#warp2)" fill="#FFD400">
      <path d="M-160 1180 L1180 -220 L1560 -220 L220 1180 Z" opacity="0.9"/>
      <path d="M-160 640 L760 -60 L980 -60 L60 760 Z" opacity="0.75"/>
      <path d="M420 1180 L1760 -220 L2060 -220 L720 1180 Z" opacity="0.55"/>
      <path d="M980 1180 L2320 -220 L2520 -220 L1180 1180 Z" opacity="0.35"/>
    </g>

    <!-- Bristle streaks riding the same diagonal -->
    <g filter="url(#warp)" stroke="#FFD400" stroke-linecap="round" fill="none">
      <path d="M-140 1010 L1420 -40" stroke-width="58" opacity="0.95"/>
      <path d="M-140 880 L1360 -120" stroke-width="26" opacity="0.7"/>
      <path d="M-140 1130 L1560 -20" stroke-width="18" opacity="0.55"/>
      <path d="M180 1180 L1740 0" stroke-width="34" opacity="0.8"/>
      <path d="M420 1180 L1980 0" stroke-width="14" opacity="0.5"/>
      <path d="M-140 720 L1180 60" stroke-width="22" opacity="0.45"/>
      <path d="M640 1180 L2060 130" stroke-width="40" opacity="0.6"/>
      <path d="M900 1180 L2140 220" stroke-width="12" opacity="0.4"/>
      <path d="M-140 480 L900 -60" stroke-width="30" opacity="0.5"/>
      <path d="M1180 1180 L1880 640" stroke-width="20" opacity="0.35"/>
    </g>

    <!-- Hairline scratches -->
    <g filter="url(#dry-fine)" stroke="#FFE44D" stroke-linecap="round" fill="none">
      <path d="M-140 960 L1420 -90" stroke-width="7" opacity="0.8"/>
      <path d="M-140 1040 L1500 -60" stroke-width="5" opacity="0.6"/>
      <path d="M60 1180 L1660 20" stroke-width="9" opacity="0.7"/>
      <path d="M-140 820 L1340 -80" stroke-width="4" opacity="0.5"/>
      <path d="M520 1180 L2000 60" stroke-width="6" opacity="0.55"/>
      <path d="M780 1180 L2120 210" stroke-width="4" opacity="0.45"/>
    </g>
  </g>

  <!-- Paint splatter -->
  <g fill="#FFD400" filter="url(#warp)">
    <circle cx="150" cy="220" r="13"/>
    <circle cx="228" cy="286" r="7"/>
    <circle cx="96"  cy="352" r="5"/>
    <circle cx="352" cy="132" r="9"/>
    <circle cx="470" cy="72"  r="16"/>
    <circle cx="612" cy="150" r="6"/>
    <circle cx="742" cy="58"  r="11"/>
    <circle cx="905" cy="128" r="8"/>
    <circle cx="1088" cy="46" r="19"/>
    <circle cx="1250" cy="130" r="7"/>
    <circle cx="1395" cy="62" r="12"/>
    <circle cx="1540" cy="190" r="6"/>
    <circle cx="1610" cy="330" r="15"/>

    <circle cx="128" cy="640" r="8"/>
    <circle cx="305" cy="712" r="17"/>
    <circle cx="452" cy="668" r="6"/>
    <circle cx="612" cy="760" r="10"/>
    <circle cx="768" cy="700" r="5"/>
    <circle cx="905" cy="790" r="14"/>
    <circle cx="1062" cy="672" r="9"/>
    <circle cx="1210" cy="762" r="6"/>
    <circle cx="1352" cy="688" r="18"/>
    <circle cx="1495" cy="774" r="8"/>
    <circle cx="1585" cy="655" r="11"/>

    <circle cx="262" cy="900" r="6"/>
    <circle cx="418" cy="962" r="12"/>
    <circle cx="585" cy="890" r="8"/>
    <circle cx="742" cy="975" r="16"/>
    <circle cx="905" cy="912" r="5"/>
    <circle cx="1055" cy="985" r="11"/>
    <circle cx="1215" cy="905" r="7"/>
    <circle cx="1360" cy="972" r="14"/>
    <circle cx="1510" cy="898" r="9"/>
    <circle cx="1590" cy="960" r="6"/>

    <ellipse cx="66" cy="470" rx="4" ry="9"/>
    <ellipse cx="1420" cy="480" rx="5" ry="11"/>
    <ellipse cx="980" cy="290" rx="3" ry="8"/>
    <ellipse cx="340" cy="500" rx="4" ry="7"/>
  </g>
</svg>